# xmcd CD database file
#
# Track frame offsets:
#	150
#	5455
#	25220
#	45197
#	59960
#	85850
#	108270
#	122420
#	133670
#	159795
#	169435
#	193272
#	218805
#	231732
#	247642
#	261037
#	273120
#	292927
#
# Disc length: 3975 seconds
#
# Revision: 0
# Processed by: cddbd v1.5.2PL0 Copyright (c) Steve Scherf et al.
# Submitted via: CDex 1.51
#
DISCID=f40f8512
DTITLE=Manfred Gustavus Quintett - Cherokee
DYEAR=1997
DGENRE=Jazz
TTITLE0=Cherokee
TTITLE1=Perdido
TTITLE2=Lullabz of Birdland
TTITLE3=Out of Nowhere
TTITLE4=Satin Doll
TTITLE5=Lover Man
TTITLE6=Cute
TTITLE7=How High the Moon
TTITLE8=Moonglow
TTITLE9=Kater Charlz
TTITLE10=Deep Purple
TTITLE11=Cheek to Cheek
TTITLE12=I|m Confessin|
TTITLE13=Autumn Leaves
TTITLE14=Avalon
TTITLE15=Honezsuckle Rose
TTITLE16=Misty
TTITLE17=Cherokee (2)
EXTD=YEAR: 1997
EXTT0=
EXTT1=
EXTT2=
EXTT3=
EXTT4=
EXTT5=
EXTT6=
EXTT7=
EXTT8=
EXTT9=
EXTT10=
EXTT11=
EXTT12=
EXTT13=
EXTT14=
EXTT15=
EXTT16=
EXTT17=
PLAYORDER=
